HIERARCHY
ROOT Hips
{
    OFFSET 0.000000 0.000000 0.000000
    CHANNELS 6 Xposition Yposition Zposition Zrotation Xrotation Yrotation
    JOINT Spine
    {
        OFFSET -0.000000 14.517291 0.000000
        CHANNELS 3 Zrotation Xrotation Yrotation
        JOINT Spine1
        {
            OFFSET -0.000000 37.558300 0.000000
            CHANNELS 3 Zrotation Xrotation Yrotation
            JOINT Neck
            {
                OFFSET -0.000000 37.404057 3.400369
                CHANNELS 3 Zrotation Xrotation Yrotation
                JOINT Head
                {
                    OFFSET -0.000000 24.785618 -3.540803
                    CHANNELS 3 Zrotation Xrotation Yrotation
                    End Site
                    {
                        OFFSET -0.000000 35.408028 0.000000
                    }
                }
            }
            JOINT LeftShoulder
            {
                OFFSET 6.992933 33.973492 -0.192664
                CHANNELS 3 Zrotation Xrotation Yrotation
                JOINT LeftArm
                {
                    OFFSET 21.527611 0.000000 0.000000
                    CHANNELS 3 Zrotation Xrotation Yrotation
                    JOINT LeftForeArm
                    {
                        OFFSET 56.353916 0.000000 0.000000
                        CHANNELS 3 Zrotation Xrotation Yrotation
                        JOINT LeftHand
                        {
                            OFFSET 47.774071 0.000000 0.000000
                            CHANNELS 3 Zrotation Xrotation Yrotation
                            End Site
                            {
                                OFFSET 26.556021 0.000000 0.000000
                            }
                        }
                    }
                }
            }
            JOINT RightShoulder
            {
                OFFSET -7.065357 33.973492 -0.192664
                CHANNELS 3 Zrotation Xrotation Yrotation
                JOINT RightArm
                {
                    OFFSET -21.527611 0.000000 0.000000
                    CHANNELS 3 Zrotation Xrotation Yrotation
                    JOINT RightForeArm
                    {
                        OFFSET -56.353916 0.000000 0.000000
                        CHANNELS 3 Zrotation Xrotation Yrotation
                        JOINT RightHand
                        {
                            OFFSET -47.774071 0.000000 0.000000
                            CHANNELS 3 Zrotation Xrotation Yrotation
                            End Site
                            {
                                OFFSET -26.556021 0.000000 0.000000
                            }
                        }
                    }
                }
            }
        }
    }
    JOINT LeftUpLeg
    {
        OFFSET 17.704014 0.000000 0.000000
        CHANNELS 3 Zrotation Xrotation Yrotation
        JOINT LeftLeg
        {
            OFFSET -0.000000 -81.181816 0.000000
            CHANNELS 3 Zrotation Xrotation Yrotation
            JOINT LeftFoot
            {
                OFFSET -0.000000 -62.821102 0.000000
                CHANNELS 3 Zrotation Xrotation Yrotation
                JOINT LeftToeBase
                {
                    OFFSET -0.000000 -11.507608 26.556021
                    CHANNELS 3 Zrotation Xrotation Yrotation
                    End Site
                    {
                        OFFSET -0.000000 0.000000 7.081605
                    }
                }
            }
        }
    }
    JOINT RightUpLeg
    {
        OFFSET -17.704014 0.000000 0.000000
        CHANNELS 3 Zrotation Xrotation Yrotation
        JOINT RightLeg
        {
            OFFSET -0.000000 -81.181816 0.000000
            CHANNELS 3 Zrotation Xrotation Yrotation
            JOINT RightFoot
            {
                OFFSET -0.000000 -62.821102 0.000000
                CHANNELS 3 Zrotation Xrotation Yrotation
                JOINT RightToeBase
                {
                    OFFSET -0.000000 -11.507608 26.556021
                    CHANNELS 3 Zrotation Xrotation Yrotation
                    End Site
                    {
                        OFFSET -0.000000 0.000000 7.081605
                    }
                }
            }
        }
    }
}
MOTION
Frames:    4
Frame Time:    0.008333
40.524334    149.538086    -23.007545    1.200655    -1.321108    -33.669903    2.419291    0.900536    -0.774990    -2.648924    1.907530    -0.209632    18.289274    4.201866    15.955271    -11.683850    1.661576    13.096798    0.171238    10.767870    -12.310464    -40.298458    8.217463    -32.052917    40.065578    -45.487747    -43.536907    -17.048880    -28.590895    -29.536413    -5.481095    5.528402    -4.703557    37.273552    11.562393    73.962029    4.716807    -8.789804    98.280891    7.846554    -12.954129    17.629051    31.266844    -12.129937    9.645038    -15.232993    23.699669    -1.026692    -17.714109    -6.766418    32.254826    0.000000    0.000000    0.000000    -24.999680    -15.008347    -7.110676    8.809286    41.406109    -3.871388    11.107436    -18.204935    -11.295489    0.000000    0.000000    0.000000    
40.538475    149.543381    -22.983103    1.198564    -1.330592    -33.669235    2.427983    0.896708    -0.776256    -2.659646    1.919504    -0.209746    18.291912    4.211395    15.959196    -11.690193    1.658647    13.101101    0.166676    10.775477    -12.301554    -40.323624    8.196784    -32.049706    40.010311    -45.464169    -43.590115    -17.047302    -28.564125    -29.535372    -5.475162    5.529377    -4.702339    37.271656    11.569047    73.951424    4.723685    -8.769282    98.278435    7.842251    -12.942475    17.626427    31.262104    -12.128514    9.627604    -15.251624    23.717989    -1.039703    -17.676220    -6.755089    32.248531    0.000000    0.000000    0.000000    -25.007885    -14.983715    -7.080717    8.821566    41.379047    -3.875455    11.118205    -18.197510    -11.310155    0.000000    0.000000    0.000000    
40.547085    149.551147    -22.959993    1.193208    -1.335875    -33.667072    2.428070    0.892047    -0.776080    -2.652014    1.931056    -0.209407    18.299204    4.212645    15.963181    -11.709772    1.665969    13.102942    0.156680    10.787914    -12.298127    -40.344349    8.201169    -32.050251    39.994411    -45.475132    -43.615688    -17.050232    -28.577343    -29.511166    -5.474563    5.535160    -4.712966    37.268066    11.580256    73.947426    4.728568    -8.753901    98.271675    7.864308    -12.927189    17.649254    31.259516    -12.127784    9.612878    -15.268971    23.739172    -1.036610    -17.691532    -6.805315    32.281303    0.000000    0.000000    0.000000    -25.003914    -14.957411    -7.086483    8.796794    41.349300    -3.884394    11.134296    -18.188049    -11.287647    0.000000    0.000000    0.000000    
40.561008    149.559509    -22.933739    1.190618    -1.344980    -33.665485    2.430707    0.891868    -0.772515    -2.652790    1.939619    -0.208005    18.295523    4.198050    15.958205    -11.701165    1.691801    13.099398    0.157709    10.788137    -12.295794    -40.373344    8.213205    -32.045780    39.965725    -45.467037    -43.653599    -17.020103    -28.575705    -29.482655    -5.467651    5.540319    -4.719970    37.279202    11.577517    73.935829    4.740563    -8.713128    98.274086    7.850839    -12.902568    17.652929    31.247099    -12.121782    9.603335    -15.273471    23.747162    -1.030147    -17.653284    -6.773844    32.248447    0.000000    0.000000    0.000000    -25.010834    -14.928261    -7.068884    8.795216    41.318474    -3.870588    11.141810    -18.181562    -11.300004    0.000000    0.000000    0.000000    
